<svg id="visual" viewBox="0 0 1920 1080" width="1920" height="1080" xmlns="http://www.w3.org/2000/svg" xmlns:xlink="http://www.w3.org/1999/xlink" version="1.1"><rect width="1920" height="1080" fill="#001829"></rect><g><g transform="translate(739 602)"><path d="M0 -52.3L45.3 -26.1L45.3 26.1L0 52.3L-45.3 26.1L-45.3 -26.1Z" fill="none" stroke="#d63031" stroke-width="2"></path></g><g transform="translate(759 324)"><path d="M0 -34L29.4 -17L29.4 17L0 34L-29.4 17L-29.4 -17Z" fill="none" stroke="#d63031" stroke-width="2"></path></g><g transform="translate(1235 256)"><path d="M0 -26L22.5 -13L22.5 13L0 26L-22.5 13L-22.5 -13Z" fill="none" stroke="#d63031" stroke-width="2"></path></g><g transform="translate(1505 36)"><path d="M0 -21L18.2 -10.5L18.2 10.5L0 21L-18.2 10.5L-18.2 -10.5Z" fill="none" stroke="#d63031" stroke-width="2"></path></g><g transform="translate(1025 961)"><path d="M0 -18L15.6 -9L15.6 9L0 18L-15.6 9L-15.6 -9Z" fill="none" stroke="#d63031" stroke-width="2"></path></g><g transform="translate(1607 491)"><path d="M0 -21L18.2 -10.5L18.2 10.5L0 21L-18.2 10.5L-18.2 -10.5Z" fill="none" stroke="#d63031" stroke-width="2"></path></g><g transform="translate(323 421)"><path d="M0 -32L27.7 -16L27.7 16L0 32L-27.7 16L-27.7 -16Z" fill="none" stroke="#d63031" stroke-width="2"></path></g><g transform="translate(485 708)"><path d="M0 -32L27.7 -16L27.7 16L0 32L-27.7 16L-27.7 -16Z" fill="none" stroke="#d63031" stroke-width="2"></path></g><g transform="translate(450 107)"><path d="M0 -21L18.2 -10.5L18.2 10.5L0 21L-18.2 10.5L-18.2 -10.5Z" fill="none" stroke="#d63031" stroke-width="2"></path></g><g transform="translate(36 326)"><path d="M0 -26L22.5 -13L22.5 13L0 26L-22.5 13L-22.5 -13Z" fill="none" stroke="#d63031" stroke-width="2"></path></g><g transform="translate(384 223)"><path d="M0 -48L41.6 -24L41.6 24L0 48L-41.6 24L-41.6 -24Z" fill="none" stroke="#d63031" stroke-width="2"></path></g><g transform="translate(978 793)"><path d="M0 -18L15.6 -9L15.6 9L0 18L-15.6 9L-15.6 -9Z" fill="none" stroke="#d63031" stroke-width="2"></path></g><g transform="translate(249 319)"><path d="M0 -25L21.7 -12.5L21.7 12.5L0 25L-21.7 12.5L-21.7 -12.5Z" fill="none" stroke="#d63031" stroke-width="2"></path></g><g transform="translate(1636 940)"><path d="M0 -42L36.4 -21L36.4 21L0 42L-36.4 21L-36.4 -21Z" fill="none" stroke="#d63031" stroke-width="2"></path></g><g transform="translate(1235 1062)"><path d="M0 -36L31.2 -18L31.2 18L0 36L-31.2 18L-31.2 -18Z" fill="none" stroke="#d63031" stroke-width="2"></path></g><g transform="translate(577 821)"><path d="M0 -27L23.4 -13.5L23.4 13.5L0 27L-23.4 13.5L-23.4 -13.5Z" fill="none" stroke="#d63031" stroke-width="2"></path></g><g transform="translate(138 547)"><path d="M0 -34L29.4 -17L29.4 17L0 34L-29.4 17L-29.4 -17Z" fill="none" stroke="#d63031" stroke-width="2"></path></g><g transform="translate(68 78)"><path d="M0 -50L43.3 -25L43.3 25L0 50L-43.3 25L-43.3 -25Z" fill="none" stroke="#d63031" stroke-width="2"></path></g><g transform="translate(1445 690)"><path d="M0 -18L15.6 -9L15.6 9L0 18L-15.6 9L-15.6 -9Z" fill="none" stroke="#d63031" stroke-width="2"></path></g><g transform="translate(964 590)"><path d="M0 -44L38.1 -22L38.1 22L0 44L-38.1 22L-38.1 -22Z" fill="none" stroke="#d63031" stroke-width="2"></path></g><g transform="translate(1545 346)"><path d="M0 -38L32.9 -19L32.9 19L0 38L-32.9 19L-32.9 -19Z" stroke="#d63031" fill="none" stroke-width="2"></path></g><g transform="translate(975 363)"><path d="M0 -18L15.6 -9L15.6 9L0 18L-15.6 9L-15.6 -9Z" stroke="#d63031" fill="none" stroke-width="2"></path></g><g transform="translate(644 992)"><path d="M0 -23L19.9 -11.5L19.9 11.5L0 23L-19.9 11.5L-19.9 -11.5Z" stroke="#d63031" fill="none" stroke-width="2"></path></g><g transform="translate(1129 547)"><path d="M0 -16L13.9 -8L13.9 8L0 16L-13.9 8L-13.9 -8Z" stroke="#d63031" fill="none" stroke-width="2"></path></g><g transform="translate(1478 817)"><path d="M0 -25L21.7 -12.5L21.7 12.5L0 25L-21.7 12.5L-21.7 -12.5Z" stroke="#d63031" fill="none" stroke-width="2"></path></g><g transform="translate(482 989)"><path d="M0 -26L22.5 -13L22.5 13L0 26L-22.5 13L-22.5 -13Z" stroke="#d63031" fill="none" stroke-width="2"></path></g><g transform="translate(1649 48)"><path d="M0 -32L27.7 -16L27.7 16L0 32L-27.7 16L-27.7 -16Z" stroke="#d63031" fill="none" stroke-width="2"></path></g><g transform="translate(1886 891)"><path d="M0 -30L26 -15L26 15L0 30L-26 15L-26 -15Z" stroke="#d63031" fill="none" stroke-width="2"></path></g></g></svg>