<svg id="visual" viewBox="0 0 1080 1920" width="1080" height="1920" xmlns="http://www.w3.org/2000/svg" xmlns:xlink="http://www.w3.org/1999/xlink" version="1.1"><rect x="0" y="0" width="1080" height="1920" fill="#DE8A68"></rect><path d="M251 0L242.2 45.7C233.3 91.3 215.7 182.7 218 274.2C220.3 365.7 242.7 457.3 251.7 548.8C260.7 640.3 256.3 731.7 237.8 823C219.3 914.3 186.7 1005.7 183.8 1097C181 1188.3 208 1279.7 235.2 1371.2C262.3 1462.7 289.7 1554.3 287.7 1645.8C285.7 1737.3 254.3 1828.7 238.7 1874.3L223 1920L0 1920L0 1874.3C0 1828.7 0 1737.3 0 1645.8C0 1554.3 0 1462.7 0 1371.2C0 1279.7 0 1188.3 0 1097C0 1005.7 0 914.3 0 823C0 731.7 0 640.3 0 548.8C0 457.3 0 365.7 0 274.2C0 182.7 0 91.3 0 45.7L0 0Z" fill="#001828" stroke-linecap="round" stroke-linejoin="miter"></path></svg>