<svg id="visual" viewBox="0 0 900 675" width="900" height="675" xmlns="http://www.w3.org/2000/svg" xmlns:xlink="http://www.w3.org/1999/xlink" version="1.1"><rect x="0" y="0" width="900" height="675" fill="#001829"></rect><g fill="none" stroke="#297EA6" stroke-width="4"><path d="M29.7 17.1L29.7 76.5L-29.7 76.5L-29.7 17.1L-81.1 -12.5L-51.4 -64L0 -34.3L51.4 -64L81.1 -12.5Z" transform="translate(384 586)"></path><path d="M5.7 3.3L5.7 14.6L-5.7 14.6L-5.7 3.3L-15.5 -2.4L-9.8 -12.2L0 -6.5L9.8 -12.2L15.5 -2.4Z" transform="translate(230 421)"></path><path d="M14.8 8.6L14.8 38.3L-14.8 38.3L-14.8 8.6L-40.5 -6.3L-25.7 -32L0 -17.1L25.7 -32L40.5 -6.3Z" transform="translate(494 73)"></path><path d="M13.2 7.6L13.2 34.1L-13.2 34.1L-13.2 7.6L-36.1 -5.6L-22.9 -28.5L0 -15.3L22.9 -28.5L36.1 -5.6Z" transform="translate(644 622)"></path><path d="M6.2 3.6L6.2 16L-6.2 16L-6.2 3.6L-17 -2.6L-10.8 -13.4L0 -7.2L10.8 -13.4L17 -2.6Z" transform="translate(131 33)"></path><path d="M20.5 11.8L20.5 52.9L-20.5 52.9L-20.5 11.8L-56 -8.7L-35.5 -44.2L0 -23.7L35.5 -44.2L56 -8.7Z" transform="translate(865 269)"></path><path d="M5.9 3.4L5.9 15.3L-5.9 15.3L-5.9 3.4L-16.2 -2.5L-10.3 -12.8L0 -6.9L10.3 -12.8L16.2 -2.5Z" transform="translate(461 354)"></path><path d="M14.3 8.3L14.3 36.9L-14.3 36.9L-14.3 8.3L-39.1 -6L-24.8 -30.8L0 -16.5L24.8 -30.8L39.1 -6Z" transform="translate(8 248)"></path></g></svg>